<?xml version="1.0" encoding="UTF-8"?>
<svg id="Layer_1" xmlns="http://www.w3.org/2000/svg" version="1.1" viewBox="0 0 64 64">
  <!-- Generator: Adobe Illustrator 29.0.1, SVG Export Plug-In . SVG Version: 2.1.0 Build 192)  -->
  <path d="M20.2,3.9C11.2,3.9,3.8,11.3,3.8,20.3v23.4c0,9,7.4,16.4,16.4,16.4h23.4c9,0,16.4-7.4,16.4-16.4v-23.4c0-9-7.4-16.4-16.4-16.4h-23.4ZM48.8,12.9c1.2,0,2.3,1,2.3,2.3s-1,2.3-2.3,2.3-2.3-1-2.3-2.3,1-2.3,2.3-2.3ZM32,17.4c8.1,0,14.6,6.6,14.6,14.6s-6.6,14.6-14.6,14.6-14.6-6.6-14.6-14.6,6.6-14.6,14.6-14.6ZM32,21.9c-5.6,0-10.1,4.5-10.1,10.1s4.5,10.1,10.1,10.1,10.1-4.5,10.1-10.1-4.5-10.1-10.1-10.1Z"/>
</svg>